<svg xmlns="http://www.w3.org/2000/svg" version="1.1" xmlns:xlink="http://www.w3.org/1999/xlink" width="1500" height="747" viewBox="0 0 1500 747"><svg xml:space="preserve" width="1500" height="747" data-version="2" data-id="lg_17cnWWcu9C1Jm8Xlj6" viewBox="0 0 434 747" x="0" y="0"><rect width="100%" height="100%" fill="transparent"></rect><path fill="#fe4f32" d="M81.89 737.565v-31.01h10.48q7.65 0 11.54 2.5 3.9 2.5 3.9 7.36 0 3.37-1.69 5.73-1.69 2.37-4.75 3.6-3.06 1.24-7.2 1.24h-2.34v10.58Zm11.88-16.83q2.38 0 3.69-.99 1.3-.99 1.3-2.97 0-1.85-1.26-2.77-1.26-.92-3.64-.92h-2.03v7.65Z"></path><rect width="25.92" height="31.01" x="-12.96" y="-15.51" fill="none" rx="0" ry="0" transform="translate(95.35 722.56)"></rect><path fill="#fe4f32" d="m106.73 737.565 8.55-30.96h14.58l8.95 30.96h-11.02l-1.17-5.94h-8.01l-1.31 5.94Zm12.82-11.48h5.99l-2.93-13.54Z"></path><rect width="32.08" height="30.96" x="-16.04" y="-15.48" fill="none" rx="0" ry="0" transform="translate(123.27 722.59)"></rect><path fill="#fe4f32" d="M164.69 738.285q-3.24 0-5.36-.97-2.11-.97-3.37-2.68-1.26-1.71-1.89-4-.63-2.3-.86-4.95h-2.11v11.88h-9.86v-30.96h12.74q7.38 0 10.64 2.58 3.26 2.59 3.26 7 0 2.66-1.44 4.75t-4.63 3.49q.18.99.31 1.62.14.63.41 1.39.58 1.62 1.46 2.25.88.63 2.41.63.99 0 1.98-.27l.54 7.38q-.9.36-1.92.61-1.01.25-2.31.25m-13.59-18.77h1.71q3.33 0 4.7-.74t1.37-2.54q0-1.53-1.12-2.23-1.13-.7-3.56-.7h-3.1Z"></path><rect width="27.68" height="31.68" x="-13.84" y="-15.84" fill="none" rx="0" ry="0" transform="translate(155.58 722.95)"></rect><path fill="#fe4f32" d="M186.24 738.285q-4.86 0-8.48-1.96t-5.63-5.51q-2-3.56-2-8.28 0-4.86 2.09-8.6 2.1-3.73 5.76-5.87 3.67-2.14 8.44-2.14 5.31 0 8.33 2.07l-1.22 7.16q-1.3-.63-2.72-.93-1.42-.29-2.68-.29-3.69 0-5.8 2.21-2.12 2.2-2.12 6.12 0 3.69 2.05 5.78 2.05 2.09 5.69 2.09 1.44 0 2.63-.27 1.2-.27 2.95-.99l1.26 7.11q-3.91 2.3-8.55 2.3"></path><rect width="24.66" height="32.36" x="-12.33" y="-16.18" fill="none" rx="0" ry="0" transform="translate(182.96 722.6)"></rect><path fill="#fe4f32" d="M198.03 737.565v-30.96h10.13v11.65h9.58v-11.65h10.17v30.96h-10.17v-12.2h-9.58v12.2Z"></path><rect width="29.88" height="30.96" x="-14.94" y="-15.48" fill="none" rx="0" ry="0" transform="translate(213.47 722.59)"></rect><path fill="#fe4f32" d="M232.86 737.565v-30.96h9.36l7.74 15.03 7.56-15.03h9.36v30.96h-9.36v-16.2l-5.71 10.8h-3.83l-5.76-10.8v16.2Z"></path><rect width="34.02" height="30.96" x="-17.01" y="-15.48" fill="none" rx="0" ry="0" transform="translate(250.37 722.59)"></rect><path fill="#fe4f32" d="M271.83 737.565v-30.96h21.74v6.84h-10.8v5.49h9.85v5.67h-9.85v5.89h10.8v7.07Z"></path><rect width="21.74" height="30.96" x="-10.87" y="-15.48" fill="none" rx="0" ry="0" transform="translate(283.2 722.59)"></rect><path fill="#fe4f32" d="M297.62 737.565v-30.96h9l12.15 16.42v-16.42h8.28v30.96h-9l-12.15-15.75v15.75Z"></path><rect width="29.43" height="30.96" x="-14.71" y="-15.48" fill="none" rx="0" ry="0" transform="translate(312.83 722.59)"></rect><path fill="#fe4f32" d="M336.86 737.565v-23.85h-6.98v-7.11h24.44v7.11h-6.98v23.85Z"></path><rect width="24.44" height="30.96" x="-12.22" y="-15.48" fill="none" rx="0" ry="0" transform="translate(342.6 722.59)"></rect><path fill="#fe4f32" d="M216.256 697.5q-84.7.026-169.402-.054c-7.308 0-14.617-.505-21.9-1.09-9.38-.717-13.128-5.235-15.573-14.298-5.847-21.66-1.94-43.56-2.286-65.3-.664-42.948-.664-85.896-.611-128.845.053-35.161.186-70.323.957-105.457.823-38.005-1.728-75.904-2.419-113.856-.478-25.86.505-51.746.452-77.632-.133-35.879-.824-71.73-.824-107.583q0-31.52 1.488-62.988C6.59 10.245 8.982 8.703 19.613 8.624q38.829-.293 77.684-.372c58.018-.08 116.009-.027 174.027-.08q59.08-.053 118.161-.24c7.946 0 15.92-.239 23.866-.212 6.405.027 10.525 3.8 12.12 9.515a69.1 69.1 0 0 1 2.976 18.231c.053 49.78-.479 99.584-.372 149.363.08 45.367.877 90.707 1.036 136.074.08 25.195-.717 50.417-.664 75.612.08 33.407.797 66.815.877 100.195.08 37.394-.346 74.814-.399 112.208 0 18.578.452 37.182.346 55.759-.027 5.262-1.17 10.55-2.18 15.733-1.727 8.665-5.926 12.837-14.883 13.262q-25.886 1.143-51.772 1.223c-48.05.16-96.102.053-144.153.053v2.498ZM187.553 32.967v-.85c-11.083 0-22.139.08-33.221 0q-59.427-.479-118.826-1.17c-6.565-.08-7.601 3.455-7.548 8.877q.399 55.759.664 111.57.452 94.614.984 189.229.452 66.734 1.01 133.47l1.408 189.2c.107 12.731 2.578 15.017 15.335 14.645 25.461-.718 50.895-1.542 76.356-2.1 58.443-1.249 116.859-2.339 175.302-3.508 5.74-.106 11.481-.558 17.248-.532q38.165.187 76.356.559c6.379.053 9.17-3.004 9.275-9.302.16-10.631.85-21.235.957-31.866q.425-37.394.425-74.761c-.026-49.141-.212-98.282-.319-147.45-.053-23.866-.212-47.758 0-71.624.16-17.036 1.143-34.072 1.25-51.081.08-11.27-1.117-22.538-1.01-33.806.265-25.169 1.355-50.31 1.488-75.48.266-44.702.08-89.404.133-134.107 0-9.275-1.488-10.843-10.79-10.71-21.023.292-42.045.744-63.068.797-47.812.133-95.624.027-143.462.027Z"></path><path fill="#fe4f32" d="m223.757 407.88 163.236-3.11c7.282-.133 9.355 1.382 9.435 8.611q.584 46.776.797 93.498c.133 30.75 0 61.526 0 92.276v57.751c0 6.22-2.87 9.276-9.329 9.329q-31.839.292-63.705.904c-29.607.531-59.213 1.435-88.82 1.7-29.447.266-58.895-.345-88.315 0-21.235.24-42.444 1.356-63.652 2.1-11.933.399-23.866.93-35.826 1.196-5.661.133-8.611-3.083-8.611-8.69 0-12.837.16-25.674.186-38.51.08-28.97.24-57.939.106-86.908-.106-22.324-.85-44.649-.93-66.974-.053-17.912.664-35.825.664-53.738 0-5.954 2.073-8.372 8.106-8.399 40.265-.239 80.529-.717 120.793-1.01 16.584-.132 33.195 0 55.838 0Zm-52.304 186.145 1.701-1.036c1.834 1.594 4.226 2.843 5.395 4.837a159.462 159.462 0 0 1 7.76 15.335c5.821 12.89 11.376 25.912 17.276 38.749 1.86 4.066 5.076 7.362 10.02 5.076 4.916-2.286 4.597-7.016 2.604-10.896-2.073-4.014-5.555-7.256-8.08-11.083-3.082-4.624-6.856-9.196-8.424-14.352a207.3 207.3 0 0 1-5.82-27.879c-.878-5.581-2.898-8.08-8.93-8.026-3.27 0-8.744-1.86-9.33-3.96-.93-3.349.639-8.026 2.526-11.375 2.684-4.73 6.644-8.69 9.993-13.05 3.056-3.986 7.016-4.119 10.63-.345 1.489 1.542 3.083 2.977 4.04 3.88l4.89-8.212 8.133 7.043c.133-2.87.345-4.81.319-6.75q-.665-40.823-1.515-81.619c-.319-15.44.425-30.988-6.113-45.712-2.206-4.917-5.262-7.548-10.445-7.574q-11.268-.133-22.484.345c-4.279.213-5.342 2.95-3.853 7.867l8.185-5.714c1.196 6.006 4.704 7.016 9.727 5.767 1.808-.452 4.04.08 5.874.691a12.757 12.757 0 0 1 9.09 11.906c.292 5.236-3.43 7.123-8.186 8.77a14.086 14.086 0 0 0-7.734 7.655c-3.003 9.01-4.226 18.604-7.309 27.56-2.604 7.601-5.82 15.388-10.524 21.794a47.839 47.839 0 0 0-9.86 26.895c-.107 2.206.61 4.465 1.169 8.32 1.993-2.579 2.977-3.642 3.747-4.865 4.492-7.042 8.744-14.218 13.422-21.155 6.963-10.365 13.288-20.89 14.325-33.753.319-3.747.877-7.494 1.887-11.109.451-1.621 2.338-2.844 3.587-4.252 1.037 1.488 2.605 2.87 3.03 4.518.85 3.428.904 7.016 1.568 10.498 2.578 13.58.053 25.912-8.664 36.836-5.926 7.441-11.481 15.175-17.62 22.43-8.797 10.366-14.086 22.272-14.166 35.72-.16 25.886.505 51.772 1.063 77.658.053 1.967 1.94 5.448 3.27 5.581 5.952.612 12.012.266 19.826.266-13.13-20.092-14.086-41.806-15.947-63.306Zm103.465-41.035 1.833-.505c0-9.86-.319-19.72.107-29.58.345-7.548-2.87-12.757-8.85-16.637a18.604 18.604 0 0 1-8.479-13.528 287.032 287.032 0 0 0-5.58-29.314c-1.808-6.91-4.067-14.405-12.97-15.893q-7.947-1.33-7.628-9.116c.266-5.555 3.429-9.036 8.824-10.126 2.338-.478 4.89.08 7.255-.345 1.515-.266 4.013-1.356 4.093-2.286 1.09-10.498 4.837-3.615 8.08-1.462 1.275.85 3.003 1.037 4.544 1.542.425-1.622 1.754-3.88 1.116-4.784-1.461-2.073-3.774-4.81-5.9-4.944-8.132-.531-16.345-.398-24.504.107-2.126.133-5.448 2.206-5.98 4.013-2.87 10.152-7.042 20.49-7.122 30.803-.266 33.832 1.036 67.665 1.807 101.497.053 1.86.877 3.668 1.329 5.528 2.312-1.621 2.737-3.428 3.854-4.598 1.488-1.568 3.481-2.63 5.262-3.906.824 2.046 1.913 4.04 2.365 6.192.399 1.94.08 4.04.08 6.352l9.488-8.957 2.1 8.24c5.554 1.567 11.162 3.667 15.148 7.467 4.412 4.226 2.525 10.684-3.481 11.8-8.478 1.569-11.163 6.858-12.252 14.22-.532 3.72-1.303 7.414-1.967 11.109-2.18 12.305-4.757 24.29-15.335 32.849a13.289 13.289 0 0 0-4.093 8.61c-.212 2.552 1.94 5.29 3.057 7.947 2.152-1.568 5.182-2.684 6.298-4.81 3.057-5.847 5.13-12.226 7.92-18.232q8.027-17.381 16.558-34.497c.957-1.914 3.375-3.136 5.13-4.651l1.78 1.17c-.186 2.072-.16 4.199-.638 6.218-3.349 14.884-7.096 29.687-10.152 44.623-2.658 12.97-2.366 12.89 10.976 11.774 4.199-.346 5.98-2.126 5.953-6.193-.133-20.783.133-41.593-.425-62.376-.346-13.05-3.774-24.823-13.714-34.816-6.006-6.06-10.1-14.537-13.501-22.564-9.461-22.377-9.7-46.616-12.704-70.27-.133-1.062.824-2.258 1.701-4.517 2.233 2.657 4.465 4.332 5.395 6.564 3.243 7.734 7.256 15.415 8.797 23.52 3.96 21.103 11.535 40.823 20.252 60.25 1.036 2.34 2.71 4.386 4.093 6.565Zm57.486 4.572c.186-2.791.558-5.077.451-7.362-.186-4.625-.956-9.276-.93-13.9.08-23.228.505-46.483.479-69.712-.027-13.687-.638-27.347-1.143-41.034-.213-5.741-3.694-9.09-9.276-9.409q-11.96-.664-23.892-.16c-1.701.08-4.28 2.393-4.678 4.12-.452 1.914 1.09 4.306 1.78 6.512q3.004-1.303 5.927-2.685c1.994-.93 4.173-3.083 5.847-2.71 4.28.93 8.266 3.136 12.438 4.544 5.555 1.86 9.515 7.07 8.957 12.491-.611 6.166-4.12 8.478-10.285 8.824-2.446.133-6.193 3.056-6.778 5.369a207.3 207.3 0 0 0-5.05 27.294c-1.275 10.87-3.826 20.783-12.969 27.986-7.096 5.58-10.391 21.341-6.06 32.158 2.18-4.013 3.907-7.07 5.529-10.153 6.112-11.747 13.182-23.148 17.94-35.427 3.693-9.514 4.278-20.198 6.697-30.244.558-2.26 3.056-4.067 4.65-6.06.824 2.286 2.392 4.571 2.392 6.857-.053 9.063-.797 18.125-.93 27.215-.266 16.69-5.873 31.201-17.567 43.16-13.475 13.768-20.81 29.634-20.145 49.434.717 20.97-.266 42.018-.027 63.014.027 2.79 2.18 7.309 4.252 7.92 4.226 1.223 9.196.85 13.528-.186.877-.213 1.09-6.405.399-9.568-3.296-15.122-7.07-30.165-10.445-45.26-.558-2.499-.08-5.263-.08-9.727 2.87 2.578 4.73 3.587 5.581 5.155 5.05 9.25 10.286 18.418 14.67 27.986 3.854 8.398 6.459 17.408 10.206 25.86.877 1.993 4.2 2.95 6.379 4.358.77-2.578 2.604-5.422 2.073-7.68a19.933 19.933 0 0 0-5.13-8.266 34.55 34.55 0 0 1-9.7-19.189c-.93-6.564-2.1-13.102-2.844-19.693-.824-7.256-3.694-12.2-11.348-14.432-8.957-2.604-10.445-9.302-4.731-16.93a21.262 21.262 0 0 0 3.774-6.803c1.834-6.83 5.395-8.186 11.269-3.853l5.74 4.199 3.615-10.232 9.488 6.245ZM85.689 548.02c2.339-2.737 4.306-4.65 5.767-6.91 1.276-1.993 3.216-4.677 2.738-6.484-3.854-14.724-7.415-29.634-12.65-43.879-5.236-14.245-12.944-27.64-18.233-41.885-2.79-7.495-2.445-16.106-4.119-24.08-.478-2.232-3.11-4.039-4.73-6.032-1.914 2.02-3.987 3.933-5.688 6.113-.558.717-.266 2.152-.266 3.242-.133 13.953-.425 27.88-.319 41.832.319 41.354.877 82.734 1.223 124.088q.186 28.544.08 57.061c0 4.465 1.355 6.883 6.351 7.282 11.694.93 12.013.718 7.973-10.604-.451-1.25-1.036-2.445-1.435-3.72-3.907-12.04-7.415-24.186-5.794-37.05.213-1.753 2.1-3.321 3.19-4.97.983 1.542 2.63 3.004 2.87 4.678 2.79 18.578 13.66 33.408 22.697 49.062.93 1.594 4.066 2.843 5.953 2.578 1.276-.187 2.897-3.243 3.056-5.103.585-7.814-1.01-14.883-7.787-20.066-9.062-6.936-12.703-16.664-13.527-27.72-.346-4.624-1.303-9.222-1.382-13.873-.133-7.521-3.19-11.64-10.95-13.262-8.452-1.754-10.1-7.76-4.943-14.963 1.913-2.657 5.023-5.05 5.554-7.946 1.063-5.661 3.588-5.21 7.362-3.163q2.472 1.329 4.89 2.711c0-2.977-1.01-5.05-2.232-6.99-11.907-18.87-19.003-38.988-15.468-61.658.531-3.482 2.923-6.698 4.465-10.02 1.329 3.27 3.907 6.591 3.8 9.807-.824 23.84 15.176 41.46 21.528 61.924Zm284.959 13.183c2.817 1.222 5.953 1.568 7.043 3.242 2.365 3.614 4.784 7.84 5.076 11.986.319 4.385-2.79 7.096-8.16 7.601-2.604.24-5.74 3.748-7.095 6.538a42.523 42.523 0 0 0-3.402 12.784c-2.02 14.75-5.183 28.862-17.913 38.616-.505.372-.797 1.063-1.063 1.674-1.887 4.333-2.684 8.77 1.94 11.774 3.615 2.339 8.664-.77 10.445-6.219 2.897-8.824 5.289-17.833 8.451-26.55 3.376-9.329 7.309-18.498 11.296-27.587.61-1.382 2.87-2.047 4.358-3.03.425 1.541 1.356 3.163 1.17 4.65-2.18 17.728-4.625 35.428-6.724 53.181-.213 1.701.983 4.678 2.232 5.156 1.674.638 4.757.08 5.953-1.196 1.25-1.328 1.25-4.066 1.276-6.219.266-35.188.585-70.402.664-105.59q.107-56.45-.186-112.9c0-3.428-1.09-6.83-1.674-10.258l-2.153.266c-.452 4.332-1.515 8.717-1.196 12.97 1.33 18.657-6.484 33.354-18.763 46.51-11.295 12.092-19.587 25.593-18.843 43.187.292 6.804-.93 13.66-1.302 20.517-.107 1.914.451 3.88.903 7.628 1.967-2.658 2.87-3.588 3.429-4.678 8.77-17.354 17.408-34.789 26.364-52.064 1.302-2.525 3.987-4.332 6.325-6.804 4.89 9.01.718 35.4-4.97 44.437-4.385 6.91-8.876 13.767-12.916 20.89-1.754 3.11-2.498 6.803-3.694 10.232l1.674.638c2.472-2.977 4.81-6.113 7.521-8.85.85-.851 3.137-1.276 4.067-.745.903.532 1.275 2.552 1.302 3.934 0 1.222-.77 2.445-1.462 4.305ZM134.59 420.53l-1.143-2.844c-7.15 0-14.325-.32-21.42.239-1.569.133-3.722 3.216-4.147 5.262-1.568 7.548-3.508 15.229-3.588 22.883-.372 33.195-.186 66.39-.133 99.584 0 1.595.479 3.163.771 5.05 1.01-.638 1.435-.798 1.7-1.09l5.183-5.767c.532 2.445.957 4.943 1.622 7.362.372 1.328 1.09 2.578 1.674 3.853 1.223-.744 2.498-1.408 3.694-2.232q2.738-1.94 5.422-3.934c.824 1.648 1.488 3.429 2.551 4.917.877 1.223 2.286 3.03 3.376 2.95 2.976-.16 5.926-1.063 8.743-2.1a10.63 10.63 0 0 0-1.222-5.155 308.293 308.293 0 0 0-11.96-15.043c-6.963-8.345-12.145-17.753-12.81-28.597-.797-13.235-.399-26.55-.133-39.812.027-1.94 2.1-3.827 3.216-5.74 1.037 1.674 2.71 3.242 3.003 5.022 5.236 31.095 16.558 60.038 30.67 87.997.797 1.568 2.02 2.923 3.349 4.837.983-1.462 1.7-2.047 1.621-2.498-3.163-18.153 2.472-38.643-14.245-53.181-.665-.558-1.063-1.409-1.595-2.126-7.548-10.02-9.355-21.926-10.205-33.86-.665-9.089-3.774-15.68-12.492-19.214a21.262 21.262 0 0 1-6.033-4.067c-4.385-3.96-4.199-8.451.984-11.348 3.986-2.233 8.717-3.083 12.863-5.05 3.72-1.754 7.123-4.225 10.684-6.378Zm4.97 173.654 2.71.212c.612 1.967 1.33 3.88 1.861 5.874 4.332 16.557-2.684 30.83-9.328 45.101-6.06 13.05-6.193 12.97 7.787 12.12q1.328-.107 2.63.026c5.104.69 6.831-2.047 6.725-6.591-.479-22.75-.85-45.5-1.701-68.25-.107-2.605-2.552-7.017-4.465-7.335-8.345-1.409-12.917 1.196-14.033 6.803-1.94 9.754-3.64 19.561-5.581 29.315-1.807 9.116-6.272 16.61-14.538 21.182-7.441 4.119-10.099 10.258-8.61 18.258.451 2.365 2.1 4.491 3.215 6.724 2.126-1.276 5.236-2.02 6.246-3.907 8.717-16.265 20.836-30.935 23.707-50.044.478-3.27 2.205-6.352 3.348-9.515Zm-11.747-151.41c1.94 4.12 4.544 8.053 5.687 12.385 2.233 8.505 4.386 17.17 5.21 25.913.823 8.69 6.351 13.501 12.384 17.807 7.336 5.235 14.618 2.179 17.355-6.512 1.914-6.086 4.545-11.694 5.501-18.365 1.356-9.594 6.14-18.71 9.17-28.091.505-1.595-.32-3.615-.532-5.449-2.02.479-4.624.32-5.953 1.542-4.518 4.146-4.784 9.514-3.482 15.282.479 2.1.08 4.518-.452 6.644-.77 3.03-2.152 5.9-3.11 8.903-1.673 5.315-.61 11.827-8.025 17.169-.426-5.21-1.462-8.85-.85-12.172 1.54-8.24 3.614-16.398 5.846-24.504 5.661-20.65 2.445-19.96-16.637-19.747-2.047 0-4.066 1.01-6.618 1.7 7.043 6.193 13.873 5.715 21.182 1.94-1.834 10.366-3.482 11.402-11.242 8.293l-11.8-4.73c1.063 4.916 1.674 8.265 2.525 11.56 2.232 8.77 4.624 17.514 6.83 26.285.478 1.887.797 4.013.372 5.847a6.378 6.378 0 0 1-2.95 3.8c-.638.32-3.083-1.196-3.402-2.285a100.993 100.993 0 0 1-2.817-12.491c-.505-2.95-.319-6.06-.93-8.984-.904-4.225-2.578-8.318-3.376-12.544-1.036-5.501-4.092-8.664-9.86-9.169Zm168.312 25.355-2.339-.133c-.319 5.262-.239 10.604-1.116 15.787-.399 2.339-2.658 4.358-4.066 6.538-1.17-2.126-3.641-4.518-3.27-6.352 2.18-11.083.054-22.883 5.608-33.434.877-1.648.133-4.146.133-6.99-10.179 6.379-13.474 5.528-17.54-3.322 3.322 0 6.723.346 10.019-.186 1.143-.186 1.967-2.472 2.924-3.827-1.223-.77-2.419-2.073-3.695-2.18q-4.65-.398-9.275.16c-7.202.85-8.106 2.738-6.14 9.674 3.589 12.544 7.123 25.115 10.18 37.793 1.86 7.707-.904 10.498-7.84 9.062 1.249 6.432 3.242 8.24 9.94 9.116 7.175.93 13.155-1.754 15.6-7.335 3.508-8.08 1.09-16.212.877-24.318ZM93.981 490.295c1.356-1.568 1.887-1.887 1.887-2.18-.638-21.367-1.196-42.762-2.206-64.13-.08-1.86-2.95-4.677-4.943-5.102a66.443 66.443 0 0 0-14.405-1.09c-4.996.053-6.325 2.472-4.438 7.415 6.83 17.94 13.288 36.012 19.906 54.031 1.25 3.429 2.578 6.804 4.2 11.056m-1.595 76.994c4.252 1.435 6.963 2.764 9.78 3.11 1.515.185 3.242-1.356 4.864-2.127-.984-1.435-1.648-3.641-2.977-4.2-8.85-3.693-16.318 2.074-15.149 11.615.346 2.844 1.276 5.581 1.86 8.398 1.86 8.85 3.987 17.674 5.316 26.604.345 2.312-1.78 5.023-2.79 7.548q-2.791-2.233-5.688-4.359c-.479-.345-1.17-.398-2.286-.744-2.418 4.252-.186 7.256 2.578 9.727 4.465 3.987 8.77 2.87 12.252-1.515 5.9 4.89 11.269 4.731 14.91-1.7 2.817-4.97 3.694-11.11 4.917-16.824.265-1.276-1.622-3.03-2.525-4.571-1.409 1.355-3.694 2.525-4.066 4.146-.798 3.402-.16 7.123-.984 10.498-.505 2.1-2.604 3.827-4.013 5.714-1.329-2.02-3.8-4.093-3.72-6.06.238-5.687 1.275-11.375 2.418-16.982 1.408-7.017 3.216-13.953 4.97-21.448-8.372 5.953-15.202 3.987-19.667-6.883Zm250.62-87.571c1.49-.266 2.1-.213 2.313-.452 13.58-17.435 20.757-37.182 20.677-59.294 0-1.568-3.535-4.358-5.528-4.465-6.884-.372-12.305 4.572-13.687 13.528-1.86 11.933-2.685 24.052-3.694 36.118-.4 4.678-.054 9.435-.054 14.591ZM232.635 579.993l-2.419-1.196-4.12 1.7c-4.518 1.94-11.667 2.897-12.89 6.113-1.567 4.12 1.516 10.073 2.791 15.202 1.409 5.528 3.057 11.003 4.89 17.568zm96.58 42.523c2.02 7.229 12.89 10.498 17.408 5.421.904-1.01.957-4.146.08-5.129-6.086-6.777-4.598-14.272-2.684-21.9.85-3.428 2.1-6.75 2.764-10.205.239-1.249-.372-3.375-1.303-3.907-1.01-.584-3.269-.319-4.199.479-3.402 3.003-7.07 5.873-5.58 11.587 1.036 4.013 1.275 8.266 1.514 12.438.319 5.74.16 11.428-8 11.163Zm-118.825-3.588c2.764 8.478 7.308 11.986 14.059 11.082 5.023-.69 9.01-2.817 9.86-9.567-8.452 5.076-15.92 3.96-23.92-1.515m30.617-38.377-2.285-.399c-1.25 4.97-2.578 9.913-3.668 14.91-.106.531 1.488 2.1 1.993 1.966 1.037-.265 2.392-1.196 2.658-2.126a87.704 87.704 0 0 0 2.445-11.082c.16-1.01-.744-2.18-1.17-3.296Zm39.467-152.154c1.754-3.747 3.72-6.139 3.163-7.122-1.143-2.1-3.641-3.455-5.581-5.103-1.037 1.408-3.243 3.19-2.924 4.146.77 2.365 2.711 4.332 5.316 8.08Zm-122.945-13.315c-1.834 3.136-3.615 5.023-3.242 5.794 1.116 2.206 3.109 3.987 4.783 5.927 1.25-1.382 3.774-3.136 3.509-4.093-.612-2.233-2.605-4.12-5.05-7.601Zm-20.04 2.79-1.01 2.366c1.968 1.728 4.253 5.076 5.848 4.784 2.551-.452 4.624-3.375 6.91-5.236l-1.01-1.913zm48.025 14.565c2.446 2.046 3.402 3.375 4.678 3.8 2.312.798 4.81 1.064 7.256 1.436.053 0 .717-2.02.451-2.233-2.152-1.674-4.332-3.428-6.777-4.518-.983-.452-2.657.665-5.608 1.488Zm38.006 141.682-.16-2.02c-4.172 0-8.398-.398-12.438.293-.93.159-1.249 3.986-1.754 5.793zm-104.767 15.76 2.206.16 1.595-13.023-2.313-.292c-3.136 3.986-3.96 8.318-1.488 13.155m7.362-154.253-.665-2.126c-1.993.186-4.332-.212-5.873.718-1.78 1.036-2.87 3.242-4.252 4.943 2.1 0 4.358.399 6.272-.186 1.7-.532 3.03-2.18 4.544-3.322ZM297.96 459.52l5.873-15.468c-6.378 1.488-8.318 6.299-5.873 15.468m-61.58 144.18-2.311-.186v12.89h2.312zm96.927-28.41 9.86 2.604.532-3.588-9.648-1.036c-.053 0-.16.372-.77 2.02ZM83.75 579.274l-3.375.213.585 9.302 3.269-.187-.452-9.301Zm-47.652-358.55q.026-72.37-.027-144.739c0-8.159-.372-16.345-.691-24.504-.345-9.01 1.967-11.72 10.976-11.614 26.763.32 53.5 1.116 80.263 1.143 25.221 0 50.47-1.01 75.691-1.063 23.92-.053 47.812.93 71.731.744 28.783-.213 57.54-1.116 86.296-1.78q14.936-.346 29.846-.957c5.262-.24 7.814 1.807 7.787 7.282-.08 16.823.053 33.62.08 50.443.026 37.846.212 75.718.053 113.563-.213 47.786-.744 95.571-1.143 143.357q-.133 18.923-.478 37.845c-.16 7.76-2.286 9.887-10.02 9.86-48.051-.132-96.102-.451-144.153-.478-30.325 0-60.65.292-90.974.558q-52.144.532-104.261 1.116c-6.538.08-9.222-2.764-9.249-10.099l.08-90.335v-80.342zm14.564-34.843 3.162-.69c1.409 3.587 2.738 7.175 4.226 10.736 2.95 7.123 5.023 14.83 9.116 21.209 10.63 16.478 18.657 34.098 25.248 52.463.612 1.674 1.754 3.136 2.631 4.704l1.94-.452c0-2.87.426-5.794-.08-8.584-2.71-15.628-5.74-31.202-8.477-46.829a54.483 54.483 0 0 0-12.305-26.019c-12.306-14.777-20.146-31.706-21.528-51.16q-1.249-18.525-2.126-37.075c-.106-2.206.452-4.439.904-8.266 6.139 5.847 7.707 11.88 9.089 18.046 3.455 15.52 5.847 31.414 10.897 46.403 4.837 14.378 12.49 27.8 19.002 41.593.585 1.25 1.914 2.153 3.88 4.253.426-3.136.877-4.997.877-6.83-.08-15.734-.319-31.441-.398-47.175a15.946 15.946 0 0 0-7.681-13.873 31.36 31.36 0 0 1-12.943-19.428c-2.18-9.249-4.545-18.47-6.83-27.72-1.701-6.857-5.263-10.87-13.183-9.913-4.704.558-7.787-2.1-7.042-7.202 1.142-7.787 9.222-13.501 17.115-12.412 2.312.32 4.598.771 7.23 1.196v-8.584l11.746 7.76c3.296-8.425 3.11-8.185 9.408-2.551 1.276 1.143 4.784.186 7.096-.425 1.117-.32 1.834-2.126 2.711-3.243q6.937 5.263 13.9-1.408l3.854 9.036c1.275-1.196 2.365-1.78 2.737-2.684 2.552-5.98 5.475-6.963 9.993-1.542 1.143 1.382 3.934 1.675 6.007 1.887 3.508.399 7.096.08 10.577.505 6.83.877 10.312 5.634 9.116 12.013-1.143 6.166-6.272 9.435-12.916 7.521-4.545-1.302-7.203-.133-8.983 4.067-4.439 10.577-8.77 21.208-13.501 31.653-3.828 8.425-7.495 17.009-15.973 22.324a9.302 9.302 0 0 0-3.641 6.512c-.691 13.687-.957 27.427-1.223 41.141-.026 2.18.77 4.359 1.196 6.538l1.78.319c1.41-2.073 3.296-3.96 4.173-6.22 8.611-22.855 22.378-43.904 23.973-69.206.266-4.146.877-8.61 2.631-12.278 2.206-4.625 5.581-8.718 8.85-12.704.718-.877 3.163-.346 4.81-.478.107 1.62.479 3.269.24 4.863-.612 4.332-1.967 8.585-2.18 12.917-.425 8.823-.265 17.673-.372 26.523-.212 18.126-6.298 33.355-20.012 45.979a77.073 77.073 0 0 0-16.664 22.75c-9.408 19.613-8.319 40.875-6.963 61.95.053 1.01 1.276 1.914 3.003 4.333 5.422-14.67 10.604-27.96 15.202-41.46 1.675-4.97 1.25-10.658 3.003-15.575 3.19-8.903 6.724-17.806 11.349-25.992 1.78-3.19 6.936-4.465 10.55-6.618.825 4.093 2.472 8.213 2.313 12.252-.292 6.804-2.02 13.528-2.658 20.332-1.461 15.707-9.142 28.384-18.71 40.317-4.146 5.156-7.68 10.817-11.481 16.265l1.302 1.063 7.043-1.648 1.276 7.017c2.285-.505 4.252-.77 6.086-1.382 6.166-2.047 12.278-3.083 17.169 2.471 4.837 5.475 2.976 11.615.903 17.568-1.488 4.305-4.491 5.66-8.903 4.412-7.734-2.18-9.462-1.17-11.561 6.75q-3.933 14.777-7.628 29.58a33.487 33.487 0 0 1-12.331 19.083c-7.469 5.793-9.302 24.982-2.977 32.37 1.116-1.408 2.392-2.604 3.11-4.066q12.305-24.637 24.477-49.327c3.216-6.538 6.06-13.288 9.435-19.746.717-1.382 2.976-1.94 4.518-2.87.69 1.514 1.621 2.976 1.967 4.57a7.973 7.973 0 0 1-.346 3.934c-3.428 10.259-6.458 20.703-10.604 30.67-4.332 10.391-9.887 20.278-14.67 30.51-1.781 3.827-1.569 6.963 4.066 6.937 17.248-.107 34.497-.053 51.745-.133 5.634-.027 6.618-1.993 3.8-6.937-3.056-5.368-6.51-10.577-9.036-16.185-6.936-15.388-12.916-31.122-12.012-48.45.132-2.578 1.036-5.13 1.594-7.68l2.392-.24q2.365 4.81 4.624 9.674c9.887 21.421 19.667 42.922 29.82 64.237 1.09 2.285 4.385 3.508 6.644 5.209 1.382-2.79 4.359-5.927 3.827-8.266-1.382-6.112-2.79-13.315-6.857-17.487a61.659 61.659 0 0 1-17.78-35.454c-.744-5.023-1.887-9.993-2.657-15.043-.957-6.192-4.226-9.461-10.738-9.328a21.262 21.262 0 0 1-6.51-.983c-5.662-1.781-7.708-6.406-5.901-12.757 2.286-8.106 4.624-9.462 11.216-8.718 9.434 1.063 18.949 2.1 28.384 1.94 17.7-.292 35.374-1.435 53.047-2.232 5.741-.266 9.834 2.87 10.95 7.814a19.135 19.135 0 0 1-1.754 12.305c-2.418 4.438-7.176 5.421-12.199 3.056-4.225-1.967-6.803-.266-7.707 4.173-1.595 7.787-3.349 15.574-4.73 23.414-1.702 9.754-4.147 19.428-11.376 26.418-7.734 7.494-8.265 16.238-6.91 25.673.32 2.259 2.419 4.252 3.694 6.352 2.02-1.435 4.864-2.419 5.927-4.359 4.2-7.76 7.973-15.76 11.614-23.786 6.458-14.113 16.717-26.923 15.495-43.773-.053-.823.186-1.94.717-2.498 1.994-2.073 4.173-3.96 6.299-5.926 1.25 2.604 3.747 5.288 3.588 7.813-1.595 24.53-5.369 48.477-21.5 68.49-.718.903-.905 2.205-1.277 3.135h61.154l1.01-2.259q-5.9-5.98-11.88-11.88c-8.531-8.318-16.106-17.355-17.488-29.713-.983-8.77-1.249-17.647-1.382-26.497-.026-1.967 1.808-3.987 2.764-5.953 1.728 1.647 4.572 3.056 4.97 4.97 3.296 15.574 11.588 28.543 20.465 41.3 6.325 9.063 12.225 18.445 18.417 27.614.771 1.143 2.18 2.046 3.482 2.578.399.16 1.78-1.143 2.126-1.994 3.641-8.664-.425-24.823-8.531-30.032-7.574-4.863-10.79-11.853-13.289-19.826-2.63-8.425-5.235-16.956-8.903-24.956a14.086 14.086 0 0 0-8.77-6.644c-5.82-1.223-11.083-1.86-11.561-9.249-.452-7.07 4.305-14.06 11.03-15.388 4.305-.85 8.77-.904 13.181-1.223 15.15-1.063 30.351-1.78 45.447-3.295 6.884-.691 13.235-2.286 19.428 2.87 5.501 4.571 11.88 8.08 18.232 12.279 0-4.226-.08-8.983 0-13.74.292-16.133 1.01-32.265.877-48.37-.213-25.196-.984-50.39-1.542-75.586l-.531-17.142c-.186-6.14-.665-12.278-.479-18.391.213-7.495 1.276-14.963 1.409-22.458.213-12.145-.133-24.318-.053-36.49.08-8.823-.824-9.993-9.674-9.966-42.736 0-85.472.133-128.208.106q-56.13-.053-112.26-.319c-27.216-.106-54.43-.398-81.645-.425-8.053 0-9.143 1.329-9.223 9.355-.186 17.222-.664 34.47-.425 51.692q1.196 82.974 2.924 165.947c.053 2.233 2.179 4.438 3.348 6.644 3.11-2.232 9.17-.956 9.01-6.936-.133-5.555 2.79-4.678 5.847-3.11 2.498 1.276 4.704 3.163 7.202 4.89l4.545-4.119 7.84 4.385c-8.265-16.823-23.76-26.205-28.437-43.267-4.412-16.08-7.814-31.972-7.043-48.503Zm3.72 128.872 3.004-.85c1.222 1.94 2.737 3.774 3.64 5.847 4.04 9.328 7.841 18.763 11.88 28.091 5.449 12.571 10.924 25.142 16.665 37.58.77 1.701 3.109 2.685 4.704 3.987 1.036-1.542 3.162-3.216 2.976-4.571-1.62-11.88-1.435-24.159-11.428-33.647-4.571-4.332-7.388-10.896-9.886-16.903-3.721-8.956-6.379-18.365-9.595-27.534-2.365-6.75-8.053-6.856-13.74-6.272-6.033.638-5.448 5.422-5.395 9.621l1.063 73.645c.053 4.226 1.967 6.804 6.219 7.07q10.604.664 21.208.956c1.382.027 3.748-.638 3.96-1.435a5.847 5.847 0 0 0-1.09-4.65C66.635 372.877 60.974 357.25 58.103 340.4c-1.435-8.531-2.471-17.116-3.694-25.673Zm53.686-28.092c-5.076-.239-9.222-.85-13.288-.558-8.08.532-10.1 4.545-7.575 12.093 3.934 11.72 7.442 23.573 10.764 35.453.585 2.073-.665 4.678-1.09 7.043-1.967-1.94-4.757-3.535-5.687-5.9-2.1-5.315-3.083-11.056-4.917-16.478-.425-1.222-2.551-1.833-3.907-2.737-.585 1.488-1.913 3.136-1.648 4.465a180.724 180.724 0 0 0 4.226 16.717 17.381 17.381 0 0 0 21.076 11.534c7.441-1.993 13.394-11.96 11.8-20.065-.24-1.17-1.674-2.1-2.552-3.136-.983 1.036-2.524 1.94-2.79 3.136-.478 2.1.292 4.544-.319 6.538-.585 1.833-2.339 3.295-3.561 4.916-1.223-1.62-3.615-3.348-3.482-4.863.585-6.963 1.037-14.113 3.11-20.704 2.1-6.724 3.747-13.182 3.401-20.677-4.89 1.675-3.853 10.206-10.311 7.23-3.854-1.755-7.15-4.678-10.711-7.097l.904-2.206c5.421.053 11.96 4.651 16.61-4.73Zm278.42 16.451c-4.517.93-8.93 1.356-12.942 2.844-2.498.93-5.528 3.136-6.352 5.448-2.897 8.08-4.465 16.664-7.468 24.717-2.658 7.123-4.837 15.893-10.206 20.172-9.993 7.946-8.637 17.594-8.186 27.56.08 1.834 3.163 5.023 4.705 4.944 2.524-.133 5.102-2.233 7.335-3.934.85-.638.797-2.445 1.222-3.72 6.405-18.551 12.624-37.129 19.375-55.547a17.01 17.01 0 0 1 7.016-8.238c7.176-4.013 8.505-6.937 5.502-14.272ZM109.05 70.22c-1.887-.664-3.481-1.78-5.023-1.648-5.554.426-13.235-.61-15.946 2.525-2.471 2.87-.239 10.578 1.143 15.84 2.445 9.382 6.166 18.418 8.531 27.8.718 2.87-.957 6.458-1.966 9.594-.585 1.834-1.967 3.402-3.004 5.103 2.02 1.196 3.88 3.11 6.033 3.481 11.322 1.967 22.458-13.634 18.259-25.407-.08-.24-.771-.24-2.525-.745-.77 3.987-1.116 8.027-2.472 11.72-.664 1.808-3.162 2.951-4.837 4.386-.797-1.86-1.993-3.64-2.232-5.581-.213-1.648.584-3.455 1.036-5.156 2.525-9.62 5.156-19.242 7.628-28.863.425-1.647.319-3.401.505-5.926-10.445 6.75-18.046 5.634-21.209-2.87 5.555-.213 12.226 3.481 16.053-4.253ZM333.812 348.48c1.25-7.308 2.339-14.51 3.748-21.66 1.461-7.442 3.215-14.83 4.97-22.83-2.897.665-5.236 1.143-7.522 1.781-8.505 2.365-10.95 6.67-8.823 15.122 1.196 4.704 2.524 9.435 3.082 14.246.346 3.003-.69 6.139-1.116 9.222l-7.122-4.412c-.133-.08-.426.053-1.887.292 1.302 6.326 6.484 8.532 11.135 10.525 5.13 2.232 10.87 3.428 15.335-1.621 4.093-4.625 7.15-9.648 3.455-16.133a6.113 6.113 0 0 1-.61-4.411c3.507-10.286 7.255-20.491 11.082-31.149-6.512.054-8.824 4.572-9.78 9.542a496.99 496.99 0 0 0-4.944 31.28c-.85 6.672-3.136 9.33-10.976 10.206Zm-105.51-17.567c-.213 3.163-.133 6.378-.771 9.461-.293 1.435-1.967 2.578-3.003 3.854-1.223-1.01-3.323-1.914-3.455-3.056-.505-4.306-.93-8.77-.346-13.023 1.355-9.78 3.322-19.481 4.89-28.384l-18.657-.904c1.01 4.173 2.578 8.93 3.27 13.82q1.913 13.767 3.002 27.64c.107 1.382-1.408 2.897-2.179 4.359-1.17-1.01-2.498-1.914-3.508-3.083-1.143-1.329-2.02-2.87-3.641-5.262-.877 6.538 1.727 11.03 7.308 13.607 5.05 2.339 10.26 2.977 14.91-.957 3.27-2.79 5.422-14.059 2.153-18.046Zm157.229-5.74-1.86-.825c-1.754 4.306-4.572 8.478-5.077 12.943-1.754 15.335-2.79 30.75-3.827 46.165-.106 1.727 1.25 4.704 2.552 5.102 1.594.505 4.491-.558 5.634-1.94a11.694 11.694 0 0 0 2.126-6.67c.32-10.366.372-20.73.452-31.122zm-269.836-5.927 1.807.398c1.143-1.834 2.71-3.561 3.375-5.554q3.163-9.329 5.635-18.87c.451-1.754-.186-3.8-.32-5.714-1.674 1.143-4.278 1.94-4.836 3.482a252.482 252.482 0 0 0-6.512 20.995c-.425 1.568.532 3.509.85 5.263M71.658 74.896c-.452.373-2.313 1.223-2.366 2.18-.053 1.143 1.143 2.897 2.286 3.455 4.013 1.94 8.372 3.216 6.14 9.408-.267.744 2.232 3.136 3.826 3.615.877.265 3.243-1.568 3.641-2.87 1.701-5.422-6.697-15.787-13.5-15.787Zm45.685 24.744c7.788-2.472 12.492-10.95 9.86-16.159-1.461-2.923-4.332-4.598-5.793-1.01-2.126 5.21-2.711 11.056-4.067 17.195Zm-28.57 22.67c2.95-4.917 2.738-16.77-.372-20.225-.877-.957-2.551-1.196-3.854-1.754-.505 1.329-1.62 2.764-1.408 3.96q1.329 8.132 3.269 16.159c.186.744 1.541 1.222 2.392 1.86Zm249.08 172.963c-4.545-3.402-15.202-3.986-17.674-.372-1.329 1.967-.585 5.688 0 8.452.213 1.01 2.684 1.541 4.12 2.285l.797-1.408-3.322-7.07c5.98-.77 11.667 5.262 16.052-1.913ZM202.788 310.45c-2.02-5.316-3.376-9.94-5.608-14.113-.718-1.355-3.694-1.754-5.714-1.993-.744-.08-2.233 1.409-2.419 2.365-.452 2.578 9.276 12.837 13.74 13.714ZM69.052 295.087c4.385 5.156 4.2 12.305 11.322 14.617 2.153-10.152-1.754-15.786-11.322-14.617m3.03-6.963c-6.007-5.236-10.126-4.013-13.794-.611-.956.903-.77 3.03-1.116 4.597 1.409.16 2.95.771 4.2.373 3.215-1.037 6.271-2.525 10.71-4.386Zm131.53 41.487V316.11c-4.731 4.438-4.652 8.717 0 13.5"></path><path fill="#fe4f32" d="M235.57 101.945q-6.81 0-10.22 3.41-1.99 1.14-3.41 3.69-1.42 2.56-1.99 5.4l-20.44-1.42q1.13-8.52 4.11-14.91 2.99-6.39 8.67-11.5 9.94-6.82 25.27-6.82h61.06q22.72 0 35.36 14.48 12.64 14.49 12.64 37.49 0 5.11-.85 10.79-3.98 30.39-23.15 45.87-19.17 15.48-46.72 15.48-9.37 0-20.73-3.13l1.42-20.44q11.36 1.98 18.74 1.98 42.6 0 48-41.74.57-6.25.57-8.52 0-15.34-8.1-23.01-8.09-7.67-22.86-7.67h-35.21l-23.01 173.53h-22.43z"></path><rect width="147.11" height="195.11" x="-73.56" y="-97.56" fill="none" rx="0" ry="0" transform="translate(273.56 177.85)"></rect></svg></svg>